<svg width="25" height="25" viewBox="0 0 25 25" fill="none" xmlns="http://www.w3.org/2000/svg">
<circle cx="12.5" cy="12.5" r="12.5" fill="#D1D1D1" stroke="white" stroke-width="2"/>
<path d="M17.2143 11.3214H13.6786V7.78571C13.6786 7.35185 13.3267 7 12.8929 7H12.1071C11.6733 7 11.3214 7.35185 11.3214 7.78571V11.3214H7.78571C7.35185 11.3214 7 11.6733 7 12.1071V12.8929C7 13.3267 7.35185 13.6786 7.78571 13.6786H11.3214V17.2143C11.3214 17.6481 11.6733 18 12.1071 18H12.8929C13.3267 18 13.6786 17.6481 13.6786 17.2143V13.6786H17.2143C17.6481 13.6786 18 13.3267 18 12.8929V12.1071C18 11.6733 17.6481 11.3214 17.2143 11.3214Z" fill="white"/>
</svg>
