<svg width="27" height="31" viewBox="0 0 27 31" fill="none" xmlns="http://www.w3.org/2000/svg">
<path d="M13.875 30.5C15.9446 30.5 17.6233 28.8213 17.6233 26.75H10.1268C10.1268 28.8213 11.8055 30.5 13.875 30.5ZM26.4955 21.7279C25.3635 20.5115 23.2454 18.6816 23.2454 12.6875C23.2454 8.13477 20.0532 4.49023 15.7489 3.59609V2.375C15.7489 1.33965 14.9098 0.5 13.875 0.5C12.8403 0.5 12.0012 1.33965 12.0012 2.375V3.59609C7.69692 4.49023 4.50473 8.13477 4.50473 12.6875C4.50473 18.6816 2.38656 20.5115 1.25453 21.7279C0.90297 22.1059 0.747111 22.5576 0.750041 23C0.756486 23.9609 1.51059 24.875 2.6309 24.875H25.1192C26.2395 24.875 26.9942 23.9609 27 23C27.003 22.5576 26.8471 22.1053 26.4955 21.7279Z" fill="white"/>
</svg>
