<svg width="49" height="49" viewBox="0 0 49 49" fill="none" xmlns="http://www.w3.org/2000/svg">
<path d="M24.5 27.5625C32.1084 27.5625 38.2812 21.3896 38.2812 13.7812C38.2812 6.17285 32.1084 0 24.5 0C16.8916 0 10.7188 6.17285 10.7188 13.7812C10.7188 21.3896 16.8916 27.5625 24.5 27.5625ZM36.75 30.625H31.4768C29.3521 31.6012 26.9883 32.1562 24.5 32.1562C22.0117 32.1562 19.6574 31.6012 17.5232 30.625H12.25C5.48379 30.625 0 36.1088 0 42.875V44.4062C0 46.9424 2.05762 49 4.59375 49H44.4062C46.9424 49 49 46.9424 49 44.4062V42.875C49 36.1088 43.5162 30.625 36.75 30.625Z" fill="white"/>
</svg>
