<svg width="25" height="26" viewBox="0 0 25 26" fill="none" xmlns="http://www.w3.org/2000/svg">
<path d="M24.6602 22.115L19.792 17.2468C19.5723 17.0271 19.2744 16.905 18.9619 16.905H18.166C19.5137 15.1814 20.3145 13.0134 20.3145 10.655C20.3145 5.04468 15.7686 0.498779 10.1582 0.498779C4.54785 0.498779 0.00195312 5.04468 0.00195312 10.655C0.00195312 16.2654 4.54785 20.8113 10.1582 20.8113C12.5166 20.8113 14.6846 20.0105 16.4082 18.6628V19.4587C16.4082 19.7712 16.5303 20.0691 16.75 20.2888L21.6182 25.157C22.0771 25.616 22.8193 25.616 23.2734 25.157L24.6553 23.7751C25.1143 23.3162 25.1143 22.574 24.6602 22.115ZM10.1582 16.905C6.70605 16.905 3.9082 14.1121 3.9082 10.655C3.9082 7.20288 6.70117 4.40503 10.1582 4.40503C13.6104 4.40503 16.4082 7.198 16.4082 10.655C16.4082 14.1072 13.6152 16.905 10.1582 16.905Z" fill="black"/>
</svg>
